<?xml version="1.0" standalone="no"?>
<!DOCTYPE svg PUBLIC "-//W3C//DTD SVG 20010904//EN"
 "http://www.w3.org/TR/2001/REC-SVG-20010904/DTD/svg10.dtd">
<svg version="1.0" xmlns="http://www.w3.org/2000/svg"
 width="400.000000pt" height="400.000000pt" viewBox="0 0 400.000000 400.000000"
 preserveAspectRatio="xMidYMid meet">

<g transform="translate(0.000000,400.000000) scale(0.100000,-0.100000)"
fill="#000000" stroke="none">
<path d="M925 3990 l-50 -7 50 -1 c28 -1 57 3 65 8 17 11 17 11 -65 0z"/>
<path d="M1032 3973 c-33 -47 -83 -135 -73 -128 5 3 30 39 55 80 46 75 55 99
18 48z"/>
<path d="M2080 3991 c0 -5 9 -7 20 -4 11 3 20 7 20 9 0 2 -9 4 -20 4 -11 0
-20 -4 -20 -9z"/>
<path d="M2247 3993 c-12 -12 -7 -22 8 -17 8 4 15 10 15 15 0 11 -14 12 -23 2z"/>
<path d="M3365 3977 c22 -13 67 -43 100 -66 l60 -43 -90 6 c-49 4 -106 9 -125
11 -19 2 -8 -2 25 -10 73 -17 209 -20 199 -4 -9 15 -184 129 -198 129 -6 0 7
-11 29 -23z"/>
<path d="M3715 3969 c-5 -22 -19 -38 -50 -57 -24 -15 -51 -32 -61 -39 -17 -10
-16 -13 18 -27 20 -9 41 -22 45 -29 4 -8 15 -17 23 -20 12 -4 11 -6 -2 -6 -10
-1 -18 -6 -18 -11 0 -6 22 1 49 15 42 21 54 34 80 87 17 35 33 75 37 91 l6 27
-60 0 c-59 0 -61 -1 -67 -31z"/>
<path d="M1990 3970 c-42 -14 -48 -19 -28 -19 15 -1 51 -10 80 -21 63 -24 74
-25 34 -3 -52 27 -57 37 -27 50 41 18 2 14 -59 -7z"/>
<path d="M2293 3955 c-29 -13 -53 -26 -53 -29 0 -4 109 42 119 50 13 11 -21 1
-66 -21z"/>
<path d="M2478 3953 c7 -3 16 -2 19 1 4 3 -2 6 -13 5 -11 0 -14 -3 -6 -6z"/>
<path d="M2485 3930 c-8 -13 35 -13 55 0 11 7 7 10 -17 10 -17 0 -35 -4 -38
-10z"/>
<path d="M3586 3893 c-6 -14 -5 -15 5 -6 7 7 10 15 7 18 -3 3 -9 -2 -12 -12z"/>
<path d="M1860 3859 c-13 -5 -37 -11 -53 -13 -16 -2 -32 -8 -36 -13 -3 -5 -25
-23 -49 -40 -55 -40 -278 -259 -317 -313 -16 -22 -36 -47 -43 -55 -7 -8 -11
-15 -7 -15 7 0 -30 -67 -72 -130 -27 -41 -63 -119 -63 -138 0 -4 22 31 48 78
80 141 161 260 203 298 25 23 38 41 34 51 -3 9 -3 12 1 8 4 -3 35 19 69 51 54
50 222 148 234 137 3 -4 -54 -79 -93 -120 -63 -68 -198 -263 -202 -291 -1 -6
-5 -27 -9 -45 l-6 -34 20 33 c12 18 18 38 15 44 -4 7 -2 8 4 4 8 -5 12 1 12
14 0 12 4 18 10 15 6 -4 7 1 3 11 -4 11 -2 15 4 11 6 -4 18 12 29 34 10 23 28
48 41 56 13 9 23 22 23 29 0 8 4 14 9 14 5 0 12 10 15 23 6 24 66 96 66 80 0
-6 -7 -16 -15 -23 -9 -7 -14 -21 -13 -30 2 -9 -3 -28 -9 -41 -7 -13 -31 -82
-54 -154 -53 -172 -59 -194 -64 -236 -2 -20 -13 -81 -25 -135 -11 -55 -29
-162 -40 -239 -11 -77 -29 -189 -41 -250 -24 -129 -40 -515 -20 -515 8 0 11
57 12 188 0 103 4 196 9 207 7 15 9 9 9 -26 1 -64 27 -210 52 -294 20 -67 64
-165 74 -165 3 0 -4 18 -15 41 -12 23 -19 43 -16 46 4 5 66 -109 66 -122 0 -4
-6 -3 -12 1 -7 5 5 -15 27 -43 41 -52 80 -80 90 -63 3 5 -10 37 -30 72 -40 72
-46 68 -10 -7 28 -58 23 -72 -11 -30 -14 17 -29 36 -35 43 -5 6 -8 12 -5 12 3
0 -8 29 -24 64 -39 85 -89 332 -62 300 5 -5 14 -29 21 -54 19 -69 53 -161 58
-156 2 2 -10 48 -27 102 -38 121 -72 311 -60 334 5 9 7 94 5 190 -4 186 1 249
35 463 25 162 46 249 90 370 33 90 122 249 169 301 l26 30 -29 -18 -29 -18 27
34 c37 50 35 56 -14 37z m-270 -202 c0 -2 -10 -12 -22 -23 l-23 -19 19 23 c18
21 26 27 26 19z"/>
<path d="M3070 3868 c3 -4 46 -33 95 -65 50 -33 114 -84 143 -114 61 -62 162
-197 188 -252 16 -33 16 -40 4 -48 -12 -8 -10 -9 6 -4 17 4 27 -2 44 -30 36
-58 32 -40 -6 30 -20 36 -31 65 -26 65 6 0 33 -5 61 -12 28 -6 54 -9 57 -6 3
3 -4 36 -15 74 -12 37 -20 68 -18 70 9 10 71 -45 102 -91 33 -47 39 -65 48
-144 10 -90 10 -90 -17 -126 -35 -46 -73 -65 -88 -44 -7 11 -8 9 -3 -6 22 -59
57 -208 61 -260 4 -48 1 -67 -14 -95 -18 -32 -24 -35 -62 -34 -49 1 -69 20
-99 99 l-20 50 25 21 c26 22 30 38 26 126 l-2 46 -47 -14 c-63 -19 -70 -18
-75 11 -3 14 -1 25 5 25 5 0 7 9 4 20 -3 11 -1 20 3 20 14 0 17 33 7 63 -8 25
-13 27 -41 21 -17 -3 -44 -13 -60 -21 -28 -14 -31 -14 -47 5 -9 12 -20 18 -24
14 -5 -4 -5 -1 -1 6 8 14 -38 103 -87 167 -44 57 -53 65 -28 24 11 -20 18 -44
15 -53 -5 -13 -12 -8 -36 21 -49 62 -51 53 -3 -12 33 -45 65 -112 57 -120 -4
-3 0 -5 8 -3 17 4 21 -21 6 -41 -9 -12 -7 -13 6 -8 10 3 20 2 24 -4 3 -6 12
-8 20 -5 8 3 14 1 14 -4 0 -5 -12 -12 -27 -15 -16 -3 -43 -10 -62 -15 -19 -5
-38 -7 -43 -4 -9 6 -10 0 -10 -73 0 -66 5 -75 40 -62 21 8 29 7 39 -7 7 -10
13 -24 13 -31 0 -7 4 -13 9 -13 8 0 18 -19 26 -50 1 -3 14 -31 29 -63 16 -34
33 -94 41 -149 9 -59 20 -97 30 -104 8 -6 15 -17 15 -23 0 -9 10 -10 33 -6 32
8 47 20 47 42 0 6 18 23 40 36 22 13 37 26 34 30 -3 3 -2 13 4 22 16 29 23 -8
7 -39 -8 -14 -10 -26 -4 -26 5 0 9 -6 9 -12 0 -7 17 -46 37 -87 l38 -74 0
-176 c0 -176 -8 -307 -19 -318 -3 -4 -6 14 -6 38 0 24 -5 51 -10 59 -7 11 -10
-4 -10 -48 0 -45 -3 -61 -12 -56 -7 4 -8 3 -4 -5 4 -6 12 -8 18 -5 7 5 9 1 5
-9 -3 -9 -9 -40 -13 -68 -4 -33 -10 -46 -15 -37 -7 10 -9 11 -9 0 0 -7 -6 -10
-12 -7 -7 4 -6 1 2 -7 23 -19 23 -69 0 -119 -11 -24 -20 -38 -20 -31 0 7 -5
10 -10 7 -6 -3 -10 -20 -10 -36 0 -16 -7 -45 -14 -64 -8 -19 -11 -35 -5 -35
12 0 12 -27 0 -32 -11 -4 -14 -21 -12 -63 1 -23 3 -27 11 -15 21 32 8 -5 -42
-121 -40 -95 -54 -119 -67 -114 -13 5 -13 4 -4 -6 10 -10 8 -16 -9 -31 -12
-10 -18 -18 -15 -18 3 0 -10 -25 -28 -56 -40 -66 -69 -149 -59 -165 5 -8 3 -9
-6 -4 -9 5 -10 2 -6 -13 4 -11 2 -23 -3 -27 -7 -4 -9 1 -5 12 5 17 4 17 -8 -1
-22 -31 -69 -89 -153 -189 -44 -52 -100 -130 -124 -173 -70 -124 -129 -166
-118 -81 l7 42 -14 -35 c-58 -148 -85 -290 -55 -290 8 0 10 -17 7 -50 -5 -52
5 -76 17 -40 4 11 11 18 16 14 5 -3 7 -11 3 -17 -3 -7 1 -4 9 5 13 16 16 14
45 -26 33 -45 40 -62 22 -51 -5 3 -10 4 -10 2 0 -7 83 -47 88 -43 2 2 -11 14
-27 26 -17 12 -35 30 -41 40 -17 31 23 13 66 -31 l38 -39 359 0 359 0 -6 28
c-17 78 -27 208 -21 297 8 145 16 217 23 210 3 -3 9 -83 13 -178 3 -95 12
-214 19 -265 l13 -92 54 0 c38 0 53 4 51 12 -2 7 16 50 40 95 74 142 92 202
91 301 l0 87 -38 -105 c-20 -58 -45 -118 -54 -135 l-16 -30 -1 38 c0 21 15
160 34 310 19 150 37 305 41 344 7 68 17 90 28 61 3 -7 6 42 6 109 1 108 -1
122 -15 116 -14 -5 -15 -3 -1 23 11 21 15 66 16 165 l1 136 -32 44 c-40 54
-38 51 -115 190 -35 62 -63 118 -63 124 0 14 29 14 50 0 16 -10 70 -79 70 -89
0 -7 82 -126 87 -126 2 0 -1 9 -7 19 -13 25 -13 34 0 26 6 -4 10 10 10 34 0
29 -10 55 -38 98 -72 108 -73 123 -5 75 17 -12 34 -22 37 -22 3 0 6 51 6 113
0 113 0 113 -30 142 -38 36 -38 45 0 45 l31 0 -1 270 c-1 149 -5 268 -9 266
-11 -7 -214 97 -219 113 -3 10 1 12 15 9 11 -3 27 -2 36 3 10 6 17 4 21 -6 3
-8 12 -15 21 -15 8 0 42 -13 75 -29 l60 -28 0 37 c0 27 -12 53 -44 100 -30 43
-42 68 -36 76 6 6 7 14 3 17 -3 4 -3 7 1 7 4 0 23 -16 42 -35 l34 -35 0 245 0
245 -41 6 c-36 6 -40 9 -34 28 16 49 17 93 1 108 -14 15 -14 17 0 22 9 3 24 6
34 6 10 0 22 5 26 11 7 12 -14 9 -71 -8 -11 -3 5 17 35 45 58 52 63 74 12 48
-46 -24 -112 -104 -147 -181 l-33 -70 -11 29 c-6 16 -20 41 -31 56 -25 35 -25
38 3 43 19 4 19 4 -5 6 -18 1 -32 11 -45 34 -11 18 -40 48 -64 67 -42 33 -40
24 8 -30 19 -21 20 -26 8 -33 -8 -4 -21 -5 -28 -1 -6 4 -9 4 -5 -1 5 -5 -1
-14 -11 -22 -18 -12 -18 -16 -4 -65 21 -77 21 -83 -6 -86 -53 -8 -104 25 -160
103 -75 107 -134 169 -205 219 -58 41 -167 106 -156 94z m606 -310 l29 -33
-35 30 c-19 17 -37 31 -39 33 -2 1 0 2 5 2 6 0 23 -15 40 -32z m-480 -164 c-5
-12 -2 -15 11 -10 10 4 14 4 11 0 -4 -4 -3 -14 2 -24 6 -12 5 -17 -6 -17 -7 0
-12 3 -9 5 3 3 -2 10 -11 16 -13 10 -11 46 3 46 3 0 2 -7 -1 -16z m64 -74 c6
-11 8 -20 6 -20 -3 0 -10 9 -16 20 -6 11 -8 20 -6 20 3 0 10 -9 16 -20z m0
-60 c0 -5 -2 -10 -4 -10 -3 0 -8 5 -11 10 -3 6 -1 10 4 10 6 0 11 -4 11 -10z
m250 -418 c0 -15 -2 -15 -10 -2 -13 20 -13 33 0 25 6 -3 10 -14 10 -23z m-60
-191 c0 -12 -20 -25 -27 -18 -7 7 6 27 18 27 5 0 9 -4 9 -9z m297 -822 c1 -10
-3 -22 -9 -25 -7 -5 -9 -2 -5 8 3 9 1 20 -4 25 -6 6 -5 10 4 10 7 0 14 -8 14
-18z m28 -79 c-6 -10 27 -79 38 -80 4 0 7 6 7 13 0 7 7 22 16 33 15 18 15 18
5 -3 -14 -29 -14 -56 0 -47 8 4 9 -1 4 -17 l-7 -24 20 23 c12 14 23 19 27 12
3 -5 1 -10 -4 -10 -6 0 -11 -5 -11 -11 0 -6 8 -8 19 -4 14 4 23 0 31 -14 10
-19 8 -21 -30 -18 -51 3 -72 22 -110 96 -35 69 -35 72 -15 65 8 -4 13 -10 10
-14z m35 -31 c0 -6 -4 -7 -10 -4 -5 3 -10 11 -10 16 0 6 5 7 10 4 6 -3 10 -11
10 -16z m56 -18 c-4 -5 0 -11 6 -14 7 -3 3 -4 -8 -4 -21 1 -23 27 -2 27 5 0 7
-4 4 -9z m-349 -330 c0 -11 -5 -18 -9 -15 -4 3 -5 11 -1 19 7 21 12 19 10 -4z
m-86 -88 c-12 -20 -14 -14 -5 12 4 9 9 14 11 11 3 -2 0 -13 -6 -23z m550 -6
c-10 -9 -11 -8 -5 6 3 10 9 15 12 12 3 -3 0 -11 -7 -18z m-504 -9 c-3 -8 -6
-5 -6 6 -1 11 2 17 5 13 3 -3 4 -12 1 -19z m-35 -77 c-13 -24 -17 -43 -12 -46
20 -12 9 -34 -17 -37 -14 -2 -28 -9 -29 -16 -1 -7 0 -8 3 -2 6 13 43 13 43 -1
0 -5 -4 -8 -9 -4 -5 3 -12 -4 -16 -15 -3 -11 -12 -20 -20 -20 -7 0 -20 -3 -29
-6 -9 -3 -16 -1 -16 6 0 19 52 80 66 78 7 -2 12 2 11 7 -1 6 -8 8 -17 7 -10
-3 -8 4 8 20 12 14 19 28 15 33 -5 4 -3 5 3 2 7 -4 14 4 18 19 4 15 10 24 13
21 3 -4 -4 -24 -15 -46z m-61 -18 c-12 -20 -14 -14 -5 12 4 9 9 14 11 11 3 -2
0 -13 -6 -23z m119 -57 c0 -3 -15 -14 -32 -26 l-33 -22 28 26 c27 25 37 31 37
22z m-190 -235 c-20 -56 -30 -73 -30 -52 0 16 42 113 46 108 2 -2 -5 -27 -16
-56z m21 -306 c11 7 11 6 9 -125 -3 -164 -17 -300 -32 -315 -7 -7 -9 -3 -5 12
3 16 1 20 -10 16 -14 -5 -15 13 -9 153 3 87 6 173 6 191 0 17 4 34 10 38 6 3
8 10 5 16 -3 5 -2 26 2 46 l8 38 3 -38 c2 -20 7 -35 13 -32z m6 -447 c-2 -24
-4 -7 -4 37 0 44 2 63 4 43 2 -21 2 -57 0 -80z"/>
<path d="M2301 3824 c12 -13 27 -24 33 -24 12 -1 39 -41 88 -128 17 -29 33
-51 35 -48 3 3 -11 35 -31 71 -19 36 -31 65 -25 65 8 0 153 -132 234 -214 48
-48 124 -150 118 -159 -4 -6 -1 -7 7 -2 10 6 12 4 7 -8 -3 -9 -1 -19 5 -23 7
-5 8 -2 3 6 -6 9 -4 11 4 6 7 -5 10 -13 8 -20 -7 -18 30 -59 45 -50 9 6 9 3
-1 -9 -12 -15 -11 -20 6 -35 11 -9 18 -23 15 -31 -2 -8 0 -11 5 -8 5 3 9 -2
10 -11 5 -58 13 -96 21 -101 5 -3 17 -23 27 -44 16 -35 16 -39 1 -56 -9 -9
-16 -21 -16 -25 0 -4 -7 -14 -15 -22 -13 -14 -15 -13 -15 11 0 31 -20 24 -20
-8 -1 -21 -2 -20 -15 4 -8 15 -21 29 -30 33 -13 5 -14 -4 -10 -62 3 -37 8 -85
11 -107 6 -35 5 -38 -9 -26 -19 15 -63 126 -114 284 -19 62 -48 144 -63 182
-16 39 -47 117 -69 175 -23 58 -50 116 -61 130 -12 15 -4 -10 20 -67 44 -99
90 -240 96 -289 1 -16 12 -64 23 -105 11 -41 18 -89 16 -107 -3 -20 0 -32 8
-33 7 0 3 -4 -8 -9 -17 -7 -17 -9 -3 -9 14 -1 16 -6 10 -23 -5 -13 -5 -39 -1
-58 3 -19 7 -28 8 -20 3 28 17 -10 41 -110 17 -72 21 -113 18 -175 -3 -44 -1
-71 3 -60 5 12 6 -4 4 -40 -2 -33 -4 -86 -4 -119 -1 -48 -3 -56 -14 -47 -17
14 -37 102 -48 206 -7 74 -7 71 -4 -35 1 -63 6 -124 10 -135 6 -18 6 -18 -5
-2 -6 10 -13 28 -14 40 -2 12 -6 29 -9 37 -3 8 -15 62 -27 120 -34 169 -114
520 -118 516 -1 -2 4 -46 12 -97 23 -137 46 -319 46 -356 0 -23 -5 -33 -15
-33 -11 0 -15 -11 -15 -42 0 -36 2 -39 13 -25 10 15 13 9 14 -42 1 -54 -1 -60
-22 -65 -13 -3 -31 -9 -41 -13 -13 -5 -15 -3 -9 7 6 9 4 11 -4 6 -7 -5 -10
-15 -7 -23 4 -11 2 -13 -9 -9 -13 4 -14 2 -5 -14 6 -11 17 -20 25 -20 8 0 15
-5 15 -11 0 -5 3 -8 8 -6 4 3 17 1 30 -4 22 -8 23 -13 17 -56 -10 -80 -34
-159 -70 -240 -20 -42 -34 -78 -32 -80 2 -2 23 37 46 87 36 78 53 131 85 263
6 24 11 28 34 25 31 -3 35 -21 51 -213 10 -107 10 -106 5 47 -4 134 -2 157 10
152 18 -7 31 -145 23 -247 -8 -97 7 -40 29 114 l17 117 36 -10 c20 -5 39 -13
43 -17 10 -9 105 -288 113 -331 6 -35 6 -36 -42 -53 -57 -20 -153 -23 -153 -4
0 30 14 57 29 57 9 0 4 6 -13 15 -33 17 -32 18 -54 -26 -15 -29 -23 -34 -57
-36 -53 -3 -194 -32 -217 -44 -26 -14 -22 -20 7 -9 50 19 23 -21 -40 -60 -20
-12 -34 -24 -32 -26 2 -3 31 2 63 10 32 8 75 17 94 20 l35 6 -27 -22 c-35 -30
-78 -96 -78 -120 0 -19 1 -19 26 1 23 18 29 19 46 7 20 -14 31 -11 77 18 19
12 61 14 68 3 9 -14 -7 -58 -18 -51 -6 4 -16 0 -21 -7 -7 -11 -11 -11 -15 -1
-7 17 -23 5 -23 -17 0 -22 37 -71 54 -71 17 0 49 58 43 80 -3 11 0 21 7 24 8
3 7 7 -3 14 -17 12 -6 33 14 26 8 -4 12 -10 9 -15 -3 -5 2 -6 10 -3 10 4 16 1
16 -7 0 -7 3 -9 7 -6 9 9 33 -12 33 -29 0 -8 -7 -14 -15 -14 -23 0 -18 -15 10
-30 14 -7 25 -17 25 -22 0 -4 7 -8 15 -8 9 0 18 -7 21 -15 10 -25 41 -18 46
10 3 14 1 25 -4 25 -5 0 -6 5 -3 10 3 6 1 10 -5 10 -8 0 -9 -10 -5 -30 7 -31
-5 -40 -24 -17 -7 10 -7 17 0 24 8 8 8 13 0 17 -6 4 -11 14 -11 23 0 11 7 14
25 11 20 -4 25 -1 25 14 0 32 -30 91 -62 126 -18 17 -29 32 -25 32 18 0 108
-52 156 -90 71 -57 77 -72 52 -146 -11 -32 -16 -60 -10 -62 5 -2 7 -8 4 -13
-4 -5 2 -6 12 -2 32 11 33 14 18 36 -11 18 -12 27 -2 46 7 14 18 26 26 29 14
5 13 -4 -4 -65 -3 -10 3 0 14 22 11 22 20 49 20 59 1 18 3 17 21 -4 11 -13 20
-24 20 -26 0 -5 -63 -119 -73 -132 -5 -7 -7 -15 -3 -19 8 -8 35 27 36 47 0 12
3 11 11 -2 24 -43 -16 -154 -102 -280 -40 -59 -47 -74 -29 -63 26 16 100 144
170 291 64 134 79 159 88 145 10 -14 11 -14 5 3 -5 16 45 132 53 123 11 -10
-62 -249 -100 -329 -13 -26 -18 -44 -13 -41 20 12 79 159 107 266 52 198 62
277 67 523 l5 232 -43 -10 c-24 -6 -50 -12 -56 -14 -9 -2 -13 -27 -13 -78 0
-121 -19 -267 -50 -393 -16 -65 -30 -131 -30 -146 0 -25 -2 -27 -21 -16 -15 8
-19 16 -14 32 43 144 77 522 44 502 -5 -4 -10 16 -10 47 -1 29 -5 67 -9 83
l-8 30 -1 -32 c-1 -23 -5 -31 -15 -27 -10 4 -15 -9 -20 -50 -4 -31 -12 -58
-17 -61 -5 -4 -9 -26 -9 -51 0 -28 -4 -43 -10 -39 -6 4 -10 -9 -11 -32 l-1
-38 -8 40 c-5 22 -14 54 -21 70 l-12 30 -7 -25 c-11 -36 -11 -238 0 -285 5
-22 8 -41 6 -42 -2 -2 -14 1 -28 6 -24 9 -25 13 -26 103 0 70 -7 121 -29 206
-31 120 -32 116 22 97 11 -4 2 4 -20 17 -23 13 -41 32 -42 43 -1 11 -13 49
-28 83 -15 35 -29 79 -32 98 -5 33 -5 34 29 34 44 0 57 14 49 53 -3 18 -5 44
-3 59 3 25 5 26 28 16 13 -6 24 -17 24 -24 0 -18 26 -30 80 -37 25 -3 37 -3
28 1 -13 5 -15 11 -8 22 9 13 11 13 20 0 5 -8 10 -23 10 -32 0 -20 15 -24 26
-7 3 6 0 16 -7 21 -11 8 -10 9 4 4 11 -3 17 0 17 10 0 8 4 13 8 10 4 -2 14 -1
21 4 11 6 9 22 -12 81 -14 41 -29 90 -33 109 -6 31 -5 33 10 21 9 -7 16 -20
16 -28 0 -8 5 -11 12 -7 7 5 9 2 5 -8 -4 -12 0 -15 18 -13 14 1 22 -1 20 -6
-3 -4 -1 -10 5 -14 5 -3 10 -2 10 3 0 5 7 9 15 9 8 0 12 -4 9 -8 -3 -5 4 -25
16 -46 l20 -38 -6 50 c-9 78 -33 153 -75 238 -43 86 -45 94 -26 81 7 -5 4 0
-8 10 l-20 19 23 -6 c14 -3 20 -1 15 6 -4 7 0 8 11 4 10 -4 15 -3 11 3 -4 6
-12 10 -18 9 -7 -1 -20 1 -31 6 -12 5 -21 3 -28 -6 -7 -10 -8 -5 -4 16 5 22 4
26 -4 15 -9 -14 -11 -13 -14 10 0 6 -5 11 -11 12 -5 2 -34 39 -64 83 -166 245
-332 429 -515 572 -105 82 -114 87 -164 89 l-54 2 23 -24z m546 -439 c75 -93
211 -291 242 -353 12 -23 19 -48 15 -54 -4 -7 -3 -8 4 -4 11 7 38 -38 34 -56
-1 -5 2 -8 7 -8 9 0 40 -73 55 -130 5 -18 0 -14 -19 15 -14 22 -24 48 -21 57
2 11 -1 15 -10 11 -10 -3 -12 0 -8 10 3 10 -3 20 -16 27 -13 7 -19 17 -16 26
3 8 2 13 -2 10 -4 -2 -42 52 -86 120 -67 108 -153 224 -315 428 -22 27 -37 55
-34 62 7 18 87 -58 170 -161z m-37 -55 c0 -5 -2 -10 -4 -10 -3 0 -8 5 -11 10
-3 6 -1 10 4 10 6 0 11 -4 11 -10z m-140 -435 c7 -9 8 -15 2 -15 -5 0 -12 7
-16 15 -3 8 -4 15 -2 15 2 0 9 -7 16 -15z m-63 -507 c-2 -7 0 -21 5 -30 6 -13
5 -18 -7 -18 -15 0 -22 40 -8 53 10 11 15 8 10 -5z m167 -49 c-2 -4 3 -12 11
-19 8 -7 12 -16 9 -21 -3 -5 -1 -9 4 -9 6 0 12 -7 16 -15 4 -12 0 -14 -22 -9
-42 10 -47 19 -43 75 3 50 4 52 16 29 7 -14 11 -28 9 -31z m-154 -18 c0 -5 -9
-7 -20 -4 -11 3 -20 7 -20 9 0 2 9 4 20 4 11 0 20 -4 20 -9z m309 -290 c1 -35
-5 -22 -12 24 -5 28 -4 34 3 20 5 -11 9 -31 9 -44z m8 -63 c-3 -7 -5 -2 -5 12
0 14 2 19 5 13 2 -7 2 -19 0 -25z m-277 -254 c0 -16 -34 -36 -44 -26 -4 3 -12
0 -17 -8 -8 -11 -9 -9 -4 10 4 14 14 30 22 37 18 14 43 6 43 -13z m436 1 c-3
-9 -11 -13 -16 -10 -8 5 -7 11 1 21 14 18 24 11 15 -11z m185 -38 c-10 -9 -11
-8 -5 6 3 10 9 15 12 12 3 -3 0 -11 -7 -18z m-547 -3 c9 -3 16 -11 16 -16 0
-7 -5 -6 -13 1 -8 6 -17 8 -20 4 -4 -3 -7 -1 -7 5 0 14 2 14 24 6z m503 -69
c-7 -17 -27 -21 -27 -4 0 5 5 7 10 4 6 -3 10 2 10 11 0 10 3 15 6 11 4 -3 4
-13 1 -22z m-397 -69 c0 -2 -7 -7 -16 -10 -8 -3 -12 -2 -9 4 6 10 25 14 25 6z"/>
<path d="M1051 3800 c-99 -70 -261 -244 -261 -278 1 -14 2 -14 12 3 42 74 168
199 303 300 45 33 -4 11 -54 -25z"/>
<path d="M1891 3782 c-11 -16 -33 -73 -49 -128 -23 -79 -31 -128 -36 -244 -9
-178 -9 -158 -2 -200 4 -24 4 -29 -2 -15 -15 35 -6 -198 17 -425 27 -267 50
-342 134 -434 31 -33 46 -44 50 -35 4 10 6 9 6 -3 1 -9 6 -20 12 -24 7 -4 9 0
5 12 -3 11 -1 26 5 34 8 12 9 9 4 -9 -5 -15 -3 -21 3 -17 6 4 19 -10 29 -31 9
-21 31 -58 48 -84 17 -25 51 -91 75 -147 24 -56 45 -100 47 -98 2 2 -12 45
-31 95 -40 103 -55 168 -37 157 6 -4 11 -12 11 -18 0 -14 73 -77 82 -72 14 9
19 -21 16 -86 l-3 -64 -34 82 c-41 99 -52 103 -15 6 14 -38 35 -93 46 -121 11
-29 23 -53 28 -53 5 0 8 20 7 44 -1 24 -6 42 -11 38 -5 -3 -6 2 -3 12 4 10 7
22 7 27 0 6 5 7 12 3 7 -4 8 -3 4 5 -4 6 -12 9 -17 6 -5 -4 -9 -2 -9 4 0 5 4
12 9 15 5 3 7 16 4 29 -5 22 -5 22 10 2 9 -11 17 -16 17 -11 0 5 9 1 20 -9 19
-17 20 -17 20 -1 0 9 5 14 10 11 20 -12 9 4 -25 39 -19 20 -29 36 -22 36 7 0
18 -5 24 -11 18 -18 35 77 34 184 -1 65 2 96 9 92 6 -4 7 2 2 17 -5 13 -9 57
-9 98 0 41 2 60 4 43 5 -37 3 -36 55 -24 24 6 40 5 47 -2 8 -8 11 -4 11 13 0
14 3 36 5 50 5 22 4 22 -4 5 -9 -19 -10 -19 -10 2 -1 15 -6 21 -16 17 -15 -6
-17 -2 -39 111 -8 39 -14 57 -15 42 0 -16 -5 -26 -11 -22 -6 4 -10 -12 -10
-42 0 -35 -3 -44 -10 -33 -8 12 -10 11 -10 -7 0 -56 -23 -174 -33 -170 -11 3
-31 63 -46 137 -6 29 -23 -301 -21 -409 0 -24 0 -24 -14 -6 -8 11 -12 24 -9
30 4 5 3 7 -2 3 -4 -4 -25 17 -46 48 -40 56 -47 70 -29 59 6 -3 10 -2 10 4 0
15 -18 23 -22 9 -3 -9 -6 -9 -12 0 -4 7 -2 12 3 12 6 0 11 5 11 11 0 6 -7 9
-15 5 -15 -5 -53 39 -42 50 9 10 28 -7 21 -18 -5 -7 -2 -8 6 -3 10 6 6 14 -16
32 -16 12 -32 23 -36 23 -6 0 -28 58 -28 73 1 4 -8 19 -19 33 -11 14 -17 32
-14 41 5 12 3 14 -8 8 -8 -5 -5 2 6 16 11 13 13 18 5 12 -16 -15 -34 -17 -25
-4 3 5 1 12 -4 16 -6 3 -8 13 -5 23 5 13 4 14 -4 3 -7 -10 -10 -4 -9 22 0 21
-5 43 -12 50 -10 10 -10 6 -2 -16 17 -44 12 -46 -10 -4 -11 21 -24 35 -29 32
-6 -4 -10 -8 -10 -11 0 -3 5 -2 10 1 6 3 10 2 10 -4 0 -5 -4 -12 -9 -15 -10
-7 -43 95 -66 204 -9 41 -18 135 -20 210 -3 74 -10 170 -16 214 -19 131 5 297
60 408 22 45 20 48 -8 10z m49 -1063 c0 28 20 6 41 -46 43 -109 117 -249 184
-346 36 -54 63 -102 59 -109 -4 -6 -3 -8 3 -5 14 9 37 -19 27 -34 -4 -8 -3 -9
4 -5 6 4 18 -6 27 -24 50 -96 -99 62 -202 215 -57 85 -183 345 -167 345 2 0 0
10 -6 23 -11 22 -11 22 9 -2 12 -13 21 -18 21 -12z m547 -171 c-3 -8 -6 -5 -6
6 -1 11 2 17 5 13 3 -3 4 -12 1 -19z"/>
<path d="M1363 3756 c-85 -27 -146 -81 -266 -237 -37 -47 -83 -101 -104 -118
-79 -67 -130 -105 -179 -132 -43 -25 -57 -40 -89 -102 -20 -39 -59 -105 -86
-146 -27 -41 -49 -80 -49 -87 0 -7 -7 -20 -16 -28 -8 -9 -13 -16 -10 -16 3 0
-2 -15 -12 -32 -10 -18 -17 -45 -16 -61 2 -15 0 -25 -4 -23 -4 3 -8 -3 -9 -12
-1 -9 -4 -42 -8 -72 -4 -30 -7 -101 -8 -158 -2 -95 -1 -103 16 -98 10 2 17 1
15 -2 -21 -38 -39 -88 -42 -114 -3 -18 -9 -46 -15 -61 -6 -16 -11 -45 -12 -65
0 -29 -2 -32 -8 -17 -5 11 -4 33 0 49 5 17 4 35 -2 45 -9 13 -10 13 -6 -5 2
-12 0 -28 -4 -37 -11 -18 -27 -101 -35 -172 -7 -59 -14 -72 -14 -24 0 66 21
213 42 296 13 54 17 87 11 91 -6 4 -12 13 -15 21 -2 8 -14 -21 -27 -65 -30
-106 -37 -123 -89 -237 -35 -75 -48 -94 -54 -82 -8 14 -12 13 -28 -7 -25 -30
-25 -17 0 32 25 49 25 55 0 30 -11 -11 -20 -27 -20 -36 0 -8 -4 -13 -9 -9 -5
3 -13 0 -17 -6 -4 -8 -9 -7 -16 2 -6 10 -7 7 -3 -8 5 -17 2 -23 -9 -23 -20 0
-21 -19 0 -34 14 -10 12 -19 -11 -81 -14 -40 -54 -109 -90 -160 -48 -67 -65
-98 -65 -123 0 -29 2 -32 19 -22 32 16 34 13 26 -47 -9 -70 -13 -83 -31 -83
-8 0 -14 -7 -14 -16 0 -11 5 -14 16 -10 13 5 15 1 9 -21 -10 -40 -7 -310 4
-368 5 -27 6 -56 1 -64 -6 -11 -8 -9 -8 9 -1 41 -13 144 -18 149 -2 2 -4 -52
-4 -120 0 -89 5 -137 17 -169 12 -34 19 -118 29 -340 13 -298 22 -383 50 -477
15 -48 18 -52 48 -51 17 1 34 6 38 12 5 8 8 7 8 -1 0 -10 40 -13 164 -13 l164
0 -24 58 c-29 72 -75 253 -79 309 -2 23 -6 47 -10 54 -5 7 -4 10 3 5 7 -4 12
12 14 51 l3 58 12 -40 c6 -22 23 -103 38 -180 14 -77 38 -179 53 -227 l27 -88
44 0 43 0 -6 33 -6 32 22 -33 c22 -31 25 -32 82 -30 43 2 61 7 63 18 4 12 3
13 -5 1 -8 -10 -11 -7 -16 15 -13 67 -5 164 14 164 5 0 6 -10 3 -22 -3 -13 -2
-20 2 -16 4 4 7 61 7 126 0 65 3 124 8 131 17 29 76 -197 86 -333 4 -52 11
-85 17 -83 6 2 20 21 31 43 l21 39 3 -43 3 -42 80 0 80 0 -7 51 c-6 46 -4 53
22 81 38 40 160 139 198 160 27 15 23 24 -6 19 -12 -2 -10 5 23 85 31 75 59
103 106 105 12 0 14 2 4 6 -7 3 -21 13 -31 22 -10 9 -60 43 -111 76 -117 75
-243 198 -291 285 -41 74 -73 165 -63 180 3 5 2 10 -3 10 -10 0 -54 62 -48 67
2 2 24 -9 50 -23 26 -14 50 -24 53 -20 4 3 2 6 -4 6 -20 0 -128 79 -152 111
-13 17 -18 28 -12 24 8 -4 7 5 -3 24 -9 17 -19 31 -22 31 -3 0 -2 -5 2 -12 4
-7 3 -8 -4 -4 -6 4 -9 12 -6 19 2 7 -6 29 -19 49 -14 19 -30 52 -37 72 -6 21
-14 35 -17 33 -6 -7 45 -179 57 -191 13 -13 13 -29 -1 -20 -6 3 -3 -8 6 -26 9
-17 19 -29 22 -26 3 3 27 -17 54 -44 32 -33 52 -63 59 -92 6 -24 18 -60 26
-82 8 -21 12 -41 10 -44 -7 -6 -76 41 -104 71 -33 36 -93 140 -88 154 3 7 2
13 -2 13 -4 0 -18 20 -31 45 -13 25 -26 44 -28 41 -2 -2 8 -25 22 -51 14 -26
25 -55 25 -63 0 -15 57 -123 70 -132 3 -3 10 -14 13 -24 6 -15 5 -17 -6 -8 -8
7 -17 9 -21 5 -4 -4 -4 1 0 11 5 13 4 17 -4 12 -8 -5 -10 -1 -5 10 4 12 3 15
-6 10 -6 -4 -11 -4 -10 1 5 18 -25 63 -42 63 -17 0 -18 -8 -14 -86 3 -47 8
-90 11 -95 3 -5 1 -9 -5 -9 -5 0 -12 9 -16 19 -3 11 -17 36 -31 56 -13 20 -21
41 -18 47 4 6 2 8 -3 5 -19 -12 -74 134 -98 256 -12 65 -25 120 -28 123 -13
14 -17 -104 -7 -191 7 -52 10 -99 6 -102 -3 -4 -6 2 -6 13 0 22 -29 106 -30
87 0 -22 -17 -14 -23 9 -3 13 -22 63 -42 112 -23 55 -33 92 -27 98 8 8 -5 128
-24 208 -6 30 11 16 20 -15 3 -11 2 3 -1 30 -9 74 -11 195 -3 200 4 3 10 -24
14 -58 8 -84 50 -235 81 -297 14 -27 25 -52 25 -55 0 -7 41 -47 45 -43 2 2
-10 30 -27 63 -29 60 -36 83 -45 160 l-4 40 22 -25 22 -25 -6 25 c-4 14 -7 29
-7 33 0 5 -4 6 -9 3 -10 -7 -7 417 4 544 3 41 7 107 8 147 2 40 6 75 10 79 4
4 7 -1 8 -12 0 -13 5 -9 15 14 17 38 28 44 14 7 -9 -25 -9 -25 35 -21 41 3 69
16 87 41 5 6 8 5 8 -2 0 -27 18 -11 41 37 13 28 27 50 30 50 4 0 9 -20 10 -44
2 -24 0 -42 -4 -39 -5 3 -7 -26 -4 -65 3 -48 1 -73 -7 -76 -7 -3 -6 -8 4 -15
10 -7 11 -11 3 -11 -7 0 -13 -9 -13 -21 0 -11 -12 -75 -26 -142 -24 -109 -27
-147 -29 -362 -1 -132 0 -244 2 -248 5 -9 25 16 48 60 16 31 14 36 49 -101 15
-54 44 -135 66 -180 38 -76 147 -227 171 -235 6 -2 -14 28 -45 65 -97 119
-161 272 -180 437 -7 49 -5 57 9 57 12 0 15 5 11 17 -6 15 -5 15 13 -1 19 -17
19 -17 14 43 -5 54 -3 65 20 100 37 55 83 88 152 106 79 20 81 20 46 -17 -49
-53 -66 -95 -65 -171 0 -89 14 -102 48 -45 18 32 36 48 59 55 44 13 62 -1 61
-48 -1 -32 1 -35 22 -31 17 3 24 0 24 -12 0 -20 4 -20 40 -1 29 15 39 42 21
61 -5 5 -11 28 -14 50 -5 41 -4 42 22 35 17 -5 27 -15 29 -32 5 -32 19 -48 40
-44 9 2 20 4 25 4 4 1 7 10 7 21 0 17 4 18 25 10 23 -9 24 -8 13 18 -7 15 -27
43 -45 62 -43 47 -42 57 4 30 25 -15 33 -16 23 -6 -19 24 -9 28 25 10 l29 -15
-19 22 c-11 11 -20 26 -20 32 -2 35 -28 127 -36 127 -6 0 -7 -10 -3 -22 7 -23
6 -23 -14 -4 -21 18 -89 202 -79 213 3 3 1 17 -4 31 -5 14 -12 52 -15 84 l-4
58 32 1 c18 1 40 3 48 4 8 1 22 3 30 4 13 1 13 2 0 11 -12 8 -12 10 3 16 33
12 -32 36 -78 29 l-41 -6 -3 79 c-2 82 24 296 41 322 7 12 8 11 4 -5 -14 -61
-17 -85 -9 -85 5 0 17 46 27 101 19 105 47 201 67 226 7 7 10 16 7 18 -8 9
-28 -21 -48 -72 -11 -26 -19 -41 -19 -33 0 8 13 46 29 84 16 38 28 72 25 74
-5 6 -11 -9 -75 -183 -50 -136 -98 -247 -100 -230 0 6 -4 3 -9 -4 -6 -10 -8 0
-5 30 7 57 -9 34 -26 -41 -18 -74 -25 -46 -10 38 20 117 21 122 30 117 9 -6
54 178 47 197 -2 7 0 21 5 31 13 25 3 21 -27 -10 -25 -27 -25 -26 4 27 40 72
39 90 0 22 -17 -28 -35 -50 -39 -47 -5 3 -6 13 -3 23 6 15 4 15 -15 -2 -12
-11 -22 -14 -22 -8 0 7 -4 12 -10 12 -5 0 -10 -7 -10 -16 0 -8 -4 -12 -10 -9
-5 3 -10 -2 -10 -12 0 -10 -13 -31 -30 -46 -16 -16 -30 -35 -30 -43 0 -8 -4
-14 -10 -14 -13 0 -13 16 0 40 8 15 7 18 -3 15 -7 -3 -13 2 -14 12 -1 10 -5
33 -10 52 l-9 35 -27 -35 c-17 -22 -27 -28 -27 -18 0 9 6 22 14 28 8 7 17 24
21 39 4 15 14 36 23 46 13 15 14 18 2 12 -9 -5 -8 -2 2 7 10 8 15 17 11 21 -3
3 -15 -2 -25 -11 -16 -14 -14 -7 7 36 20 40 24 55 15 61 -7 4 -8 9 -2 11 5 2
13 15 17 29 11 36 -50 -35 -149 -174 -43 -61 -76 -104 -73 -96 18 50 15 48
-20 -15 -79 -141 -84 -148 -98 -125 -7 12 21 122 45 175 11 24 75 98 157 180
76 77 154 161 173 187 36 49 64 70 53 41 -5 -11 -3 -14 6 -9 7 5 10 17 7 29
-3 14 -2 17 6 9 12 -12 41 11 44 36 2 8 8 20 15 26 9 8 9 6 0 -11 -8 -15 -8
-23 -1 -23 5 0 10 5 10 11 0 5 4 8 9 5 5 -3 16 5 25 18 12 18 12 26 3 29 -6 3
2 6 18 6 21 1 26 4 16 10 -11 7 -9 10 8 16 11 3 26 15 32 26 6 11 29 29 52 39
49 22 23 25 -40 6z m-100 -131 c-3 -9 -8 -14 -10 -11 -3 3 -2 9 2 15 9 16 15
13 8 -4z m-49 -555 c-6 -6 -10 -2 -11 12 -2 16 1 18 10 9 7 -7 8 -14 1 -21z
m145 -159 c-6 -29 -13 -50 -16 -47 -3 3 0 28 7 56 16 66 24 59 9 -9z m-319
-100 c-5 -10 -6 -21 -3 -25 4 -3 -3 -15 -15 -26 -12 -12 -22 -26 -22 -33 0 -7
-14 -41 -31 -77 -30 -63 -42 -94 -59 -155 -5 -16 -17 -61 -28 -100 -11 -38
-27 -106 -36 -150 -9 -44 -19 -91 -22 -103 -3 -13 -1 -21 3 -19 4 3 6 -27 4
-66 -3 -40 -6 -62 -9 -49 -2 12 -7 20 -12 17 -11 -7 -22 59 -15 98 3 17 7 46
9 62 8 65 19 113 46 204 47 164 150 411 171 411 6 0 7 5 4 10 -3 6 -1 10 5 10
6 0 8 5 4 12 -4 7 -3 8 4 4 8 -5 9 -13 2 -25z m-17 -106 c-3 -9 -8 -14 -10
-11 -3 3 -2 9 2 15 9 16 15 13 8 -4z m247 -79 c-21 -110 -21 -115 -5 -81 l14
30 1 -50 c0 -27 3 -60 6 -72 5 -19 1 -23 -33 -29 -21 -3 -46 -14 -56 -22 -10
-9 -18 -12 -17 -7 5 25 -2 27 -25 5 -14 -13 -28 -20 -32 -16 -4 3 28 75 70
159 43 83 78 159 78 167 1 9 3 7 6 -4 3 -11 0 -47 -7 -80z m-45 33 l-15 -44 6
40 c6 41 13 59 20 52 2 -2 -3 -23 -11 -48z m-157 -224 c-3 -3 -9 2 -12 12 -6
14 -5 15 5 6 7 -7 10 -15 7 -18z m202 -36 c-21 -6 -22 -7 -4 -8 18 -1 23 -14
43 -123 12 -67 31 -148 42 -181 11 -33 18 -62 15 -64 -3 -3 9 -17 25 -30 28
-24 77 -103 64 -103 -4 0 -21 11 -38 24 -18 14 -73 43 -122 66 -99 45 -153 78
-202 124 -27 24 -33 26 -33 13 0 -10 10 -31 21 -47 31 -41 20 -60 -26 -50 -19
4 -47 16 -61 25 -31 20 -40 15 -24 -14 10 -20 7 -23 -35 -42 -26 -11 -49 -18
-52 -15 -6 6 0 15 72 111 25 33 55 80 66 105 11 25 35 74 54 110 l33 65 63 12
c35 7 65 17 68 22 9 12 34 19 46 13 5 -4 -1 -9 -15 -13z m-270 -111 c0 7 4 10
10 7 6 -4 4 -17 -5 -35 -9 -17 -15 -33 -15 -37 0 -20 -12 -43 -21 -38 -5 3 -6
0 -3 -8 3 -8 1 -18 -5 -22 -6 -3 -11 -15 -11 -25 0 -10 -5 -22 -12 -26 -7 -4
-8 -3 -4 4 4 6 8 45 11 87 3 60 8 80 22 90 13 10 20 10 25 2 6 -9 8 -8 8 1z
m-543 -200 c-3 -7 -5 -2 -5 12 0 14 2 19 5 13 2 -7 2 -19 0 -25z m-245 -90
c-4 -15 -2 -19 7 -13 15 9 -15 -52 -35 -72 -7 -8 -16 -29 -20 -48 -3 -19 -10
-32 -15 -29 -5 3 -2 22 7 42 9 20 20 48 24 62 13 43 29 80 34 80 2 0 2 -10 -2
-22z m193 -246 c0 -130 -3 -217 -7 -192 -13 86 -8 430 6 430 0 0 1 -107 1
-238z m822 122 c8 -22 -11 -37 -36 -29 -23 7 -28 30 -8 38 23 10 38 7 44 -9z
m-1080 -69 c0 -8 -4 -12 -9 -9 -5 3 -6 10 -3 15 9 13 12 11 12 -6z m1141 -46
c3 -29 -20 -54 -43 -45 -18 7 -20 47 -3 64 19 19 43 10 46 -19z m-182 0 c8
-14 -18 -31 -30 -19 -9 9 0 30 14 30 5 0 12 -5 16 -11z m105 -16 c-12 -20 -14
-14 -5 12 4 9 9 14 11 11 3 -2 0 -13 -6 -23z m79 -57 c0 -2 -7 -9 -15 -16 -13
-11 -14 -10 -9 4 5 14 24 23 24 12z m-1253 -728 c-3 -8 -6 -5 -6 6 -1 11 2 17
5 13 3 -3 4 -12 1 -19z m973 -65 c3 -4 -19 7 -49 23 -30 16 -56 35 -59 41 -3
11 92 -47 108 -64z m119 -147 c11 -14 6 -15 -27 -7 -4 1 8 21 12 21 2 0 9 -6
15 -14z m46 -56 c-3 -5 -2 -10 3 -10 5 0 14 -12 21 -27 l12 -28 -21 25 c-18
21 -20 21 -11 4 20 -40 24 -127 8 -157 -14 -26 -14 -23 -16 59 0 48 -3 96 -7
106 -5 17 1 38 12 38 3 0 2 -4 -1 -10z m65 -71 c0 -16 5 -29 11 -29 6 0 9 -7
6 -15 -4 -8 -2 -17 4 -21 19 -11 -1 -127 -38 -214 -35 -84 -63 -131 -48 -80
45 144 49 169 50 282 0 64 3 114 8 111 4 -2 7 -17 7 -34z m71 -34 c0 -5 -5
-11 -13 -13 -10 -3 -10 -1 1 6 11 8 10 11 -5 15 -16 5 -16 6 -1 4 10 -1 18 -6
18 -12z m124 -65 c3 -6 -1 -7 -9 -4 -18 7 -21 14 -7 14 6 0 13 -4 16 -10z
m-670 -152 c19 -65 19 -96 0 -43 -25 67 -34 106 -24 100 4 -3 15 -29 24 -57z
m17 -130 c-7 -7 -12 -8 -12 -2 0 14 12 26 19 19 2 -3 -1 -11 -7 -17z m-626
-206 c0 -10 -8 -18 -18 -18 -16 0 -16 2 -1 18 9 10 17 18 17 18 1 0 2 -8 2
-18z"/>
<path d="M1194 2458 c-14 -28 -15 -31 -2 -20 14 11 31 52 22 52 -2 0 -11 -15
-20 -32z"/>
<path d="M3782 3746 c7 -8 15 -12 17 -11 5 6 -10 25 -20 25 -5 0 -4 -6 3 -14z"/>
<path d="M3548 3739 c15 -6 30 -5 40 1 13 7 8 9 -23 9 -35 0 -37 -1 -17 -10z"/>
<path d="M713 3705 c-89 -39 -105 -50 -137 -99 -18 -28 -38 -59 -43 -69 -7
-13 -12 -4 -22 43 -14 63 -13 62 -92 79 -25 6 -53 13 -62 16 -11 5 -26 -10
-55 -56 -44 -68 -72 -85 -173 -99 -31 -4 -72 -13 -93 -20 l-36 -12 0 -344 c0
-249 3 -344 11 -344 6 0 30 -16 53 -36 113 -98 166 -147 161 -152 -3 -3 -15 3
-27 14 l-23 19 18 -21 c24 -29 15 -44 -51 -97 l-57 -45 -29 72 c-51 125 -57
126 -55 9 1 -69 5 -103 13 -103 6 0 4 -5 -4 -10 -12 -8 -12 -10 5 -10 18 -1
19 -1 3 -11 -16 -9 -18 -29 -18 -190 0 -172 1 -179 19 -170 10 6 21 8 25 6 3
-3 4 -2 1 2 -8 10 16 33 29 26 6 -3 8 -3 4 2 -11 11 12 36 25 28 5 -3 7 -2 4
4 -9 14 83 114 96 106 6 -3 7 -1 3 6 -4 7 9 31 32 59 71 85 242 387 242 429 1
21 26 69 34 66 3 -2 5 0 4 5 -2 4 -6 6 -10 5 -5 -2 -8 12 -8 30 0 22 8 41 22
53 21 19 21 19 14 0 -7 -19 -6 -19 14 -1 25 23 26 35 0 35 -23 0 -28 38 -8 58
6 6 9 14 6 18 -4 3 -13 -7 -21 -22 l-15 -28 -11 39 c-6 22 -11 51 -11 65 0 17
-8 29 -22 35 -32 14 -35 76 -8 151 12 33 23 71 25 86 4 34 34 77 77 110 20 16
49 58 72 104 22 44 57 100 79 127 21 26 37 47 35 47 -1 -1 -18 -7 -35 -15z
m-383 -109 c0 -2 -7 -7 -16 -10 -8 -3 -12 -2 -9 4 6 10 25 14 25 6z m-226
-310 c-24 -49 -40 -73 -45 -65 -9 16 4 51 44 113 44 69 44 44 1 -48z"/>
<path d="M2341 3659 c-1 -4 16 -51 38 -105 21 -55 54 -145 72 -201 18 -56 35
-101 37 -99 4 5 -46 194 -58 216 -5 10 -6 20 -3 24 3 3 1 6 -5 6 -7 0 -12 6
-12 13 -1 13 -68 156 -69 146z"/>
<path d="M3785 3642 c19 -23 19 -24 0 -38 -10 -8 -14 -14 -9 -14 6 0 18 6 28
13 16 12 15 14 -11 37 -26 24 -27 24 -8 2z"/>
<path d="M3086 3587 c3 -10 9 -15 12 -12 3 3 0 11 -7 18 -10 9 -11 8 -5 -6z"/>
<path d="M1040 3510 c-30 -28 -74 -59 -97 -69 -31 -14 -53 -36 -85 -85 -24
-36 -53 -70 -65 -77 -13 -7 -21 -14 -19 -17 7 -6 152 95 172 121 11 13 22 24
26 25 13 4 128 131 128 142 0 14 1 15 -60 -40z"/>
<path d="M2997 3535 c10 -13 25 -27 33 -30 8 -4 2 8 -14 24 -36 37 -43 40 -19
6z"/>
<path d="M1075 3400 c-3 -5 -1 -10 4 -10 6 0 11 5 11 10 0 6 -2 10 -4 10 -3 0
-8 -4 -11 -10z"/>
<path d="M3125 3389 c-4 -6 -5 -12 -2 -15 2 -3 7 2 10 11 7 17 1 20 -8 4z"/>
<path d="M3208 3223 c6 -2 18 -2 25 0 6 3 1 5 -13 5 -14 0 -19 -2 -12 -5z"/>
<path d="M890 3202 c0 -6 -7 -18 -16 -27 -9 -9 -14 -18 -11 -21 3 -3 13 6 23
20 9 15 14 29 10 33 -3 3 -6 1 -6 -5z"/>
<path d="M2512 3125 c-1 -11 5 -33 13 -50 11 -24 14 -26 14 -9 1 11 -3 24 -8
30 -5 5 -11 18 -14 29 l-5 20 0 -20z"/>
<path d="M2542 3010 c0 -14 2 -19 5 -12 2 6 2 18 0 25 -3 6 -5 1 -5 -13z"/>
<path d="M1700 2965 c0 -8 -14 -63 -31 -122 -24 -87 -31 -129 -32 -215 -2 -96
0 -109 18 -122 29 -21 70 -14 69 13 -1 37 14 23 24 -21 6 -24 10 -33 11 -20 1
22 8 26 48 23 26 -3 37 13 24 36 -76 146 -126 310 -122 406 1 20 -1 37 -4 37
-3 0 -5 -7 -5 -15z m-3 -97 c-3 -8 -6 -5 -6 6 -1 11 2 17 5 13 3 -3 4 -12 1
-19z"/>
<path d="M2551 2964 c0 -11 3 -14 6 -6 3 7 2 16 -1 19 -3 4 -6 -2 -5 -13z"/>
<path d="M525 2850 c3 -5 8 -10 11 -10 2 0 4 5 4 10 0 6 -5 10 -11 10 -5 0 -7
-4 -4 -10z"/>
<path d="M1241 2834 c0 -11 3 -14 6 -6 3 7 2 16 -1 19 -3 4 -6 -2 -5 -13z"/>
<path d="M2125 2806 c7 -35 -3 -86 -16 -86 -6 0 -7 9 -4 20 4 11 2 20 -4 20
-6 0 -11 -9 -11 -21 0 -11 -4 -18 -10 -14 -5 3 -7 -9 -5 -30 3 -24 1 -34 -5
-30 -7 4 -8 -3 -4 -21 5 -19 4 -25 -5 -20 -18 11 -13 -10 6 -25 9 -8 14 -9 10
-2 -15 24 4 43 43 43 29 0 40 -5 42 -17 4 -18 2 67 -2 117 l-2 25 -8 -25 c-7
-22 -8 -20 -10 15 -1 22 -6 49 -11 60 -7 16 -8 14 -4 -9z"/>
<path d="M1501 2694 c0 -11 3 -14 6 -6 3 7 2 16 -1 19 -3 4 -6 -2 -5 -13z"/>
<path d="M2040 2689 c0 -5 5 -7 10 -4 6 3 10 8 10 11 0 2 -4 4 -10 4 -5 0 -10
-5 -10 -11z"/>
<path d="M2703 2615 c0 -27 2 -38 4 -22 2 15 2 37 0 50 -2 12 -4 0 -4 -28z"/>
<path d="M2055 2580 c10 -11 20 -20 23 -20 3 0 -3 9 -13 20 -10 11 -20 20 -23
20 -3 0 3 -9 13 -20z"/>
<path d="M2173 2540 c0 -36 2 -50 4 -32 2 17 2 47 0 65 -2 17 -4 3 -4 -33z"/>
<path d="M2120 2472 c0 -4 9 -13 19 -19 16 -10 19 -9 17 4 -3 15 -36 29 -36
15z"/>
<path d="M3112 2440 c0 -14 2 -19 5 -12 2 6 2 18 0 25 -3 6 -5 1 -5 -13z"/>
<path d="M1761 2411 c-2 -24 50 -181 116 -356 36 -93 69 -183 75 -198 6 -15
12 -26 15 -23 2 2 -9 39 -26 81 -32 78 -38 102 -21 75 65 -103 234 -256 347
-314 54 -27 51 -17 -4 13 -68 38 -93 57 -187 149 -117 114 -196 243 -251 412
-47 142 -63 182 -64 161z"/>
<path d="M3122 2380 c0 -19 2 -27 5 -17 2 9 2 25 0 35 -3 9 -5 1 -5 -18z"/>
<path d="M2180 2391 c0 -5 5 -13 10 -16 6 -3 10 -2 10 4 0 5 -4 13 -10 16 -5
3 -10 2 -10 -4z"/>
<path d="M2407 2353 c-2 -5 -4 -23 -5 -41 -2 -28 0 -32 11 -20 7 7 16 21 20
32 6 14 4 17 -9 12 -12 -4 -15 -2 -10 9 5 15 0 21 -7 8z"/>
<path d="M1366 2232 c-3 -4 -1 -26 4 -47 5 -24 5 -44 0 -51 -7 -7 -2 -15 16
-22 58 -27 68 -10 29 53 -13 22 -25 48 -25 58 0 17 -15 23 -24 9z"/>
<path d="M3161 2204 c0 -11 3 -14 6 -6 3 7 2 16 -1 19 -3 4 -6 -2 -5 -13z"/>
<path d="M2984 2185 c11 -8 25 -15 30 -15 6 0 2 7 -8 15 -11 8 -25 15 -30 15
-6 0 -2 -7 8 -15z"/>
<path d="M1460 1981 c0 -5 7 -14 15 -21 13 -10 15 -9 15 9 0 12 -6 21 -15 21
-8 0 -15 -4 -15 -9z"/>
<path d="M2681 1934 c0 -11 3 -14 6 -6 3 7 2 16 -1 19 -3 4 -6 -2 -5 -13z"/>
<path d="M2651 1914 c0 -11 3 -14 6 -6 3 7 2 16 -1 19 -3 4 -6 -2 -5 -13z"/>
<path d="M2416 1873 c-6 -14 -5 -15 5 -6 7 7 10 15 7 18 -3 3 -9 -2 -12 -12z"/>
<path d="M1976 1800 c3 -14 11 -32 16 -40 6 -10 7 -7 2 10 -3 14 -11 32 -16
40 -6 10 -7 7 -2 -10z"/>
<path d="M3538 1800 c-3 -14 -9 -34 -12 -45 -4 -11 0 -7 9 8 9 16 15 36 13 45
-3 12 -6 10 -10 -8z"/>
<path d="M3452 1785 c0 -16 2 -22 5 -12 2 9 2 23 0 30 -3 6 -5 -1 -5 -18z"/>
<path d="M581 1714 c0 -11 3 -14 6 -6 3 7 2 16 -1 19 -3 4 -6 -2 -5 -13z"/>
<path d="M1910 1696 c0 -3 9 -10 20 -16 11 -6 20 -8 20 -6 0 3 -9 10 -20 16
-11 6 -20 8 -20 6z"/>
<path d="M3431 1654 c0 -11 3 -14 6 -6 3 7 2 16 -1 19 -3 4 -6 -2 -5 -13z"/>
<path d="M1428 1606 c-5 -41 -3 -44 12 -16 7 13 7 26 2 37 -7 12 -10 8 -14
-21z"/>
<path d="M3451 1574 c0 -11 3 -14 6 -6 3 7 2 16 -1 19 -3 4 -6 -2 -5 -13z"/>
<path d="M517 1455 c7 -49 13 -58 13 -19 0 16 -5 36 -10 44 -6 10 -7 2 -3 -25z"/>
<path d="M3451 1464 c0 -11 3 -14 6 -6 3 7 2 16 -1 19 -3 4 -6 -2 -5 -13z"/>
<path d="M2921 1299 c-67 -125 -109 -173 -216 -245 -27 -19 -45 -34 -38 -34
14 0 93 59 161 121 38 34 65 74 108 157 32 62 55 114 53 116 -2 2 -33 -50 -68
-115z"/>
<path d="M735 1365 c10 -55 48 -175 55 -175 4 0 11 7 14 16 3 8 2 13 -3 10 -4
-3 -22 36 -40 87 -17 51 -28 79 -26 62z"/>
<path d="M2575 1330 c-3 -5 -1 -10 4 -10 6 0 11 5 11 10 0 6 -2 10 -4 10 -3 0
-8 -4 -11 -10z"/>
<path d="M2995 1278 c-51 -77 -177 -198 -255 -245 -79 -47 -63 -50 29 -4 30
15 75 50 104 81 60 66 161 200 154 206 -2 2 -17 -15 -32 -38z"/>
<path d="M3373 1275 c0 -8 4 -12 9 -9 5 3 6 10 3 15 -9 13 -12 11 -12 -6z"/>
<path d="M3212 1080 c-7 -11 -8 -20 -3 -20 9 0 24 30 18 36 -1 2 -8 -6 -15
-16z"/>
<path d="M2705 923 c-16 -9 -55 -22 -85 -29 l-55 -13 50 5 c44 5 125 37 125
49 0 7 -1 6 -35 -12z"/>
<path d="M2883 908 c-19 -19 -59 -40 -100 -55 -56 -19 -42 -24 20 -7 21 6 22
-9 2 -26 -23 -19 -65 -99 -59 -114 10 -25 -49 -77 -155 -136 -58 -33 -128 -67
-154 -76 -27 -9 -46 -18 -44 -20 2 -3 17 0 32 6 15 6 29 9 31 7 2 -1 -4 -27
-13 -56 -20 -69 -14 -248 11 -303 16 -38 32 -54 19 -21 -7 17 -5 17 17 2 25
-17 29 -41 15 -86 -5 -15 -3 -23 4 -23 6 0 11 6 11 14 0 8 5 27 11 43 9 25 12
26 23 11 11 -15 13 -15 25 5 10 16 10 19 1 10 -18 -17 -40 8 -40 46 0 22 -4
29 -14 25 -8 -3 -12 -13 -9 -25 4 -15 2 -18 -11 -13 -28 11 -48 63 -52 135 -3
58 -1 68 14 72 16 4 16 5 0 6 -11 1 -18 9 -18 21 0 20 1 20 31 4 30 -15 32
-15 25 1 -16 42 -27 104 -23 126 4 21 4 20 6 -6 1 -16 16 -60 34 -98 l33 -67
-35 5 -36 6 39 -15 c21 -8 46 -22 55 -32 13 -14 13 -15 1 -9 -8 5 2 -8 23 -29
20 -20 55 -61 77 -91 42 -57 58 -71 68 -61 3 4 -4 13 -16 22 -12 8 -27 25 -33
37 -10 19 -7 18 18 -6 l30 -28 7 31 c3 18 2 39 -3 48 -5 9 -8 87 -7 172 1 127
4 161 18 181 22 34 50 101 38 94 -4 -3 -10 1 -13 7 -3 7 -14 -8 -26 -34 -19
-41 -31 -105 -45 -243 -2 -22 -3 10 -1 70 3 69 11 136 24 181 19 67 98 214
155 289 33 43 30 44 -11 3z m-153 -289 c0 -6 -5 -7 -12 -3 -8 5 -9 2 -4 -11 5
-15 4 -16 -8 -6 -12 10 -19 8 -35 -8 -12 -12 -21 -29 -21 -39 0 -10 -11 -41
-25 -68 l-25 -49 0 61 0 60 58 41 c55 38 72 43 72 22z m-160 -93 c-14 -14 -13
-29 3 -20 7 4 9 3 4 -2 -5 -5 -14 -9 -20 -9 -7 -1 -11 -6 -10 -12 2 -7 -6 -11
-17 -10 -13 1 -16 5 -10 13 6 6 7 14 3 18 -4 3 2 12 12 19 21 16 51 19 35 3z"/>
<path d="M2540 515 c-7 -9 -8 -15 -2 -15 5 0 12 7 16 15 3 8 4 15 2 15 -2 0
-9 -7 -16 -15z"/>
<path d="M1968 883 c7 -3 16 -2 19 1 4 3 -2 6 -13 5 -11 0 -14 -3 -6 -6z"/>
<path d="M2643 823 c9 -2 23 -2 30 0 6 3 -1 5 -18 5 -16 0 -22 -2 -12 -5z"/>
<path d="M1498 440 c4 -55 3 -59 -19 -63 l-24 -4 25 -2 25 -1 -25 -20 c-17
-13 -20 -20 -10 -20 13 0 13 -2 1 -9 -8 -5 -15 -18 -16 -28 0 -10 -5 -25 -9
-32 -7 -11 -3 -13 17 -9 22 4 25 2 21 -20 -7 -34 -17 -53 -48 -81 l-26 -24 0
68 c0 91 -13 74 -21 -28 -6 -68 -3 -89 12 -126 24 -56 36 -48 13 9 l-17 42 52
47 c45 40 53 53 62 101 5 30 9 91 9 135 -1 44 -1 84 -1 88 1 4 22 -4 49 -18
50 -28 23 -5 -38 32 l-36 22 4 -59z"/>
<path d="M1634 406 c11 -9 24 -16 30 -16 12 0 7 5 -24 19 -24 11 -24 11 -6 -3z"/>
<path d="M1720 368 c61 -29 141 -34 256 -13 52 9 93 19 91 22 -3 2 -58 -3
-123 -13 -122 -17 -143 -15 -249 20 -11 3 0 -4 25 -16z"/>
<path d="M2088 383 c7 -3 16 -2 19 1 4 3 -2 6 -13 5 -11 0 -14 -3 -6 -6z"/>
<path d="M2760 90 c0 -5 5 -10 11 -10 5 0 7 5 4 10 -3 6 -8 10 -11 10 -2 0 -4
-4 -4 -10z"/>
<path d="M2746 48 c-9 -37 -7 -43 9 -22 16 21 19 44 6 44 -5 0 -11 -10 -15
-22z"/>
</g>
</svg>
